<?xml version="1.0" encoding="UTF-8"?><!DOCTYPE svg PUBLIC "-//W3C//DTD SVG 1.1//EN" "http://www.w3.org/Graphics/SVG/1.1/DTD/svg11.dtd"><svg xmlns="http://www.w3.org/2000/svg" xmlns:xlink="http://www.w3.org/1999/xlink"><defs><svg viewBox="0 0 24 24" id="alarm" xmlns="http://www.w3.org/2000/svg"><path d="M12 20a7 7 0 01-7-7 7 7 0 017-7 7 7 0 017 7 7 7 0 01-7 7m0-16a9 9 0 00-9 9 9 9 0 009 9 9 9 0 009-9 9 9 0 00-9-9m.5 4H11v6l4.75 2.85.75-1.23-4-2.37V8M7.88 3.39L6.6 1.86 2 5.71l1.29 1.53 4.59-3.85M22 5.72l-4.6-3.86-1.29 1.53 4.6 3.86L22 5.72z"/></svg><svg viewBox="0 0 24 24" id="alert-circle-outline" xmlns="http://www.w3.org/2000/svg"><path d="M11 15h2v2h-2v-2m0-8h2v6h-2V7m1-5C6.47 2 2 6.5 2 12a10 10 0 0010 10 10 10 0 0010-10A10 10 0 0012 2m0 18a8 8 0 01-8-8 8 8 0 018-8 8 8 0 018 8 8 8 0 01-8 8z"/></svg><svg viewBox="0 0 24 24" id="arrow-left" xmlns="http://www.w3.org/2000/svg"><path d="M20 11v2H8l5.5 5.5-1.42 1.42L4.16 12l7.92-7.92L13.5 5.5 8 11h12z"/></svg><svg viewBox="0 0 24 24" id="backup-restore" xmlns="http://www.w3.org/2000/svg"><path d="M12 3a9 9 0 00-9 9H0l4 4 4-4H5a7 7 0 017-7 7 7 0 017 7 7 7 0 01-7 7c-1.5 0-2.91-.5-4.06-1.3L6.5 19.14A9.115 9.115 0 0012 21a9 9 0 009-9 9 9 0 00-9-9m2 9a2 2 0 00-2-2 2 2 0 00-2 2 2 2 0 002 2 2 2 0 002-2z"/></svg><svg viewBox="0 0 24 24" id="bluetooth" xmlns="http://www.w3.org/2000/svg"><path d="M14.88 16.29L13 18.17v-3.76m0-8.58l1.88 1.88L13 9.58m4.71-1.87L12 2h-1v7.58L6.41 5 5 6.41 10.59 12 5 17.58 6.41 19 11 14.41V22h1l5.71-5.71-4.3-4.29 4.3-4.29z"/></svg><svg viewBox="0 0 24 24" id="bluetooth-connect" xmlns="http://www.w3.org/2000/svg"><path d="M19 10l-2 2 2 2 2-2m-6.12 4.29L13 18.17v-3.76m0-8.58l1.88 1.88L13 9.58m4.71-1.87L12 2h-1v7.58L6.41 5 5 6.41 10.59 12 5 17.58 6.41 19 11 14.41V22h1l5.71-5.71-4.3-4.29M7 12l-2-2-2 2 2 2 2-2z"/></svg><svg viewBox="0 0 24 24" id="bluetooth-off" xmlns="http://www.w3.org/2000/svg"><path d="M13 5.83l1.88 1.88-1.6 1.6 1.41 1.41 3.02-3.02L12 2h-1v5.03l2 2M5.41 4L4 5.41 10.59 12 5 17.59 6.41 19 11 14.41V22h1l4.29-4.29 2.3 2.29L20 18.59m-7-.42v-3.76l1.88 1.88"/></svg><svg viewBox="0 0 24 24" id="bluetooth-transfer" xmlns="http://www.w3.org/2000/svg"><path d="M14.71 7.71L10.41 12l4.3 4.29L9 22H8v-7.59L3.41 19 2 17.59 7.59 12 2 6.41 3.41 5 8 9.59V2h1l5.71 5.71M10 5.83v3.76l1.88-1.88L10 5.83m1.88 10.46L10 14.41v3.76l1.88-1.88M22 8h-2v3h-2V8h-2l3-4 3 4m0 8l-3 4-3-4h2v-3h2v3h2z"/></svg><svg viewBox="0 0 24 24" id="ceiling-light" xmlns="http://www.w3.org/2000/svg"><path d="M8 9h3V4h2v5h3l4 8H4l4-8m6 9a2 2 0 01-2 2 2 2 0 01-2-2h4z"/></svg><svg viewBox="0 0 24 24" id="cellphone-settings" xmlns="http://www.w3.org/2000/svg"><path d="M16 16H8V4h8m0-4H8a2 2 0 00-2 2v16a2 2 0 002 2h8a2 2 0 002-2V2a2 2 0 00-2-2m-1 24h2v-2h-2m-4 2h2v-2h-2m-4 2h2v-2H7v2z"/></svg><svg viewBox="0 0 24 24" id="chart-bar" xmlns="http://www.w3.org/2000/svg"><path d="M22 21H2V3h2v16h2v-9h4v9h2V6h4v13h2v-5h4v7z"/></svg><svg viewBox="0 0 24 24" id="check" xmlns="http://www.w3.org/2000/svg"><path d="M21 7L9 19l-5.5-5.5 1.41-1.41L9 16.17 19.59 5.59 21 7z"/></svg><svg viewBox="0 0 24 24" id="chevron-down" xmlns="http://www.w3.org/2000/svg"><path d="M7.41 8.58L12 13.17l4.59-4.59L18 10l-6 6-6-6 1.41-1.42z"/></svg><svg viewBox="0 0 24 24" id="chevron-left" xmlns="http://www.w3.org/2000/svg"><path d="M15.41 16.58L10.83 12l4.58-4.59L14 6l-6 6 6 6 1.41-1.42z"/></svg><svg viewBox="0 0 24 24" id="chevron-right" xmlns="http://www.w3.org/2000/svg"><path d="M8.59 16.58L13.17 12 8.59 7.41 10 6l6 6-6 6-1.41-1.42z"/></svg><svg viewBox="0 0 24 24" id="chip" xmlns="http://www.w3.org/2000/svg"><path d="M6 4h12v1h3v2h-3v2h3v2h-3v2h3v2h-3v2h3v2h-3v1H6v-1H3v-2h3v-2H3v-2h3v-2H3V9h3V7H3V5h3V4m5 11v3h1v-3h-1m2 0v3h1v-3h-1m2 0v3h1v-3h-1z"/></svg><svg viewBox="0 0 24 24" id="clock-outline" xmlns="http://www.w3.org/2000/svg"><path d="M12 20a8 8 0 008-8 8 8 0 00-8-8 8 8 0 00-8 8 8 8 0 008 8m0-18a10 10 0 0110 10 10 10 0 01-10 10C6.47 22 2 17.5 2 12A10 10 0 0112 2m.5 5v5.25l4.5 2.67-.75 1.23L11 13V7h1.5z"/></svg><svg viewBox="0 0 24 24" id="close-circle-outline" xmlns="http://www.w3.org/2000/svg"><path d="M12 20c-4.41 0-8-3.59-8-8s3.59-8 8-8 8 3.59 8 8-3.59 8-8 8m0-18C6.47 2 2 6.47 2 12s4.47 10 10 10 10-4.47 10-10S17.53 2 12 2m2.59 6L12 10.59 9.41 8 8 9.41 10.59 12 8 14.59 9.41 16 12 13.41 14.59 16 16 14.59 13.41 12 16 9.41 14.59 8z"/></svg><svg viewBox="0 0 24 24" id="cog-outline" xmlns="http://www.w3.org/2000/svg"><path d="M12 8a4 4 0 014 4 4 4 0 01-4 4 4 4 0 01-4-4 4 4 0 014-4m0 2a2 2 0 00-2 2 2 2 0 002 2 2 2 0 002-2 2 2 0 00-2-2m-2 12c-.25 0-.46-.18-.5-.42l-.37-2.65c-.63-.25-1.17-.59-1.69-.99l-2.49 1.01c-.22.08-.49 0-.61-.22l-2-3.46a.493.493 0 01.12-.64l2.11-1.66L4.5 12l.07-1-2.11-1.63a.493.493 0 01-.12-.64l2-3.46c.12-.22.39-.31.61-.22l2.49 1c.52-.39 1.06-.73 1.69-.98l.37-2.65c.04-.24.25-.42.5-.42h4c.25 0 .46.18.5.42l.37 2.65c.63.25 1.17.59 1.69.98l2.49-1c.22-.09.49 0 .61.22l2 3.46c.13.22.07.49-.12.64L19.43 11l.07 1-.07 1 2.11 1.63c.19.15.25.42.12.64l-2 3.46c-.12.22-.39.31-.61.22l-2.49-1c-.52.39-1.06.73-1.69.98l-.37 2.65c-.04.24-.25.42-.5.42h-4m1.25-18l-.37 2.61c-1.2.25-2.26.89-3.03 1.78L5.44 7.35l-.75 1.3L6.8 10.2a5.55 5.55 0 000 3.6l-2.12 1.56.75 1.3 2.43-1.04c.77.88 1.82 1.52 3.01 1.76l.37 2.62h1.52l.37-2.61c1.19-.25 2.24-.89 3.01-1.77l2.43 1.04.75-1.3-2.12-1.55c.4-1.17.4-2.44 0-3.61l2.11-1.55-.75-1.3-2.41 1.04a5.42 5.42 0 00-3.03-1.77L12.75 4h-1.5z"/></svg><svg viewBox="0 0 24 24" id="cogs" xmlns="http://www.w3.org/2000/svg"><path d="M15.9 18.45c1.35 0 2.45-1.1 2.45-2.45s-1.1-2.45-2.45-2.45c-1.36 0-2.45 1.1-2.45 2.45s1.09 2.45 2.45 2.45m5.2-1.77l1.48 1.16c.13.11.17.29.08.45l-1.4 2.42a.35.35 0 01-.43.15l-1.74-.7c-.36.28-.76.51-1.18.69l-.27 1.85c-.02.17-.17.3-.34.3h-2.8c-.18 0-.32-.13-.35-.3l-.26-1.85c-.43-.18-.82-.41-1.18-.69l-1.75.7c-.15.06-.34 0-.42-.15l-1.4-2.42a.351.351 0 01.08-.45l1.48-1.16-.05-.68.05-.69-1.48-1.15a.353.353 0 01-.08-.45l1.4-2.42c.08-.16.27-.22.42-.16l1.75.71c.36-.28.75-.52 1.18-.69l.26-1.86c.03-.16.17-.29.35-.29h2.8c.17 0 .32.13.34.29l.27 1.86c.42.17.82.41 1.18.69l1.74-.71c.17-.06.34 0 .43.16l1.4 2.42c.09.15.05.34-.08.45l-1.48 1.15.05.69-.05.68M6.69 8.07c.87 0 1.57-.7 1.57-1.57 0-.87-.7-1.58-1.57-1.58A1.58 1.58 0 005.11 6.5c0 .87.71 1.57 1.58 1.57m3.34-1.13l.97.74c.07.07.09.19.03.29l-.9 1.56c-.05.1-.17.14-.27.1l-1.12-.45-.74.44-.19 1.19c-.02.11-.11.19-.22.19h-1.8c-.12 0-.21-.08-.23-.19L5.4 9.62l-.76-.44-1.14.45c-.09.04-.2 0-.26-.1l-.9-1.56c-.06-.1-.03-.22.05-.29l.95-.74-.03-.44.03-.44-.95-.74a.229.229 0 01-.05-.29l.9-1.56c.06-.1.17-.14.26-.1l1.13.45.77-.44.16-1.19c.02-.11.11-.19.23-.19h1.8c.11 0 .2.08.22.19L8 3.38l.74.44 1.12-.45c.1-.04.22 0 .27.1l.9 1.56c.06.1.04.22-.03.29l-.97.74.03.44-.03.44z"/></svg><svg viewBox="0 0 24 24" id="content-save" xmlns="http://www.w3.org/2000/svg"><path d="M15 9H5V5h10m-3 14a3 3 0 01-3-3 3 3 0 013-3 3 3 0 013 3 3 3 0 01-3 3m5-16H5a2 2 0 00-2 2v14a2 2 0 002 2h14a2 2 0 002-2V7l-4-4z"/></svg><svg viewBox="0 0 24 24" id="cup-water" xmlns="http://www.w3.org/2000/svg"><path d="M18.32 8H5.67l-.44-4h13.54M12 19a3 3 0 01-3-3c0-2 3-5.4 3-5.4s3 3.4 3 5.4a3 3 0 01-3 3M3 2l2 18.23c.13 1 .97 1.77 2 1.77h10c1 0 1.87-.77 2-1.77L21 2H3z"/></svg><svg viewBox="0 0 24 24" id="cursor-pointer" xmlns="http://www.w3.org/2000/svg"><path d="M13.75 10.19l.63.13 4.17 2.08c.7.23 1.16.92 1.1 1.66v.26l-.9 6.12c-.06.43-.25.83-.6 1.11-.31.3-.72.45-1.15.45h-6.88c-.49 0-.94-.18-1.27-.53L2.86 15.5l.9-1c.24-.25.62-.39.98-.37h.29L9 15V4.5a2 2 0 012-2 2 2 0 012 2v5.69h.75z"/></svg><svg viewBox="0 0 24 24" id="database" xmlns="http://www.w3.org/2000/svg"><path d="M12 3C7.58 3 4 4.79 4 7s3.58 4 8 4 8-1.79 8-4-3.58-4-8-4M4 9v3c0 2.21 3.58 4 8 4s8-1.79 8-4V9c0 2.21-3.58 4-8 4s-8-1.79-8-4m0 5v3c0 2.21 3.58 4 8 4s8-1.79 8-4v-3c0 2.21-3.58 4-8 4s-8-1.79-8-4z"/></svg><svg viewBox="0 0 24 24" id="delete-forever-outline" xmlns="http://www.w3.org/2000/svg"><path d="M14.12 10.47L12 12.59l-2.13-2.12-1.41 1.41L10.59 14l-2.12 2.12 1.41 1.41L12 15.41l2.12 2.12 1.41-1.41L13.41 14l2.12-2.12-1.41-1.41M15.5 4l-1-1h-5l-1 1H5v2h14V4h-3.5M6 19a2 2 0 002 2h8a2 2 0 002-2V7H6v12M8 9h8v10H8V9z"/></svg><svg viewBox="0 0 24 24" id="dev-to" xmlns="http://www.w3.org/2000/svg"><path d="M7.73 11.93c0 1.72-.02 1.83-.23 2.07-.19.17-.38.23-.76.23l-.51.01-.03-2.27-.02-2.27h.52c.35 0 .6.07.77.21.24.21.26.25.26 2.02M22 7.5v9c0 1.11-.89 2-2 2H4c-1.11 0-2-.89-2-2v-9c0-1.11.89-2 2-2h16c1.11 0 2 .89 2 2M8.93 11.73c-.03-1.84-.05-1.99-.29-2.39-.4-.68-.85-.84-2.36-.84H5v7h1.21c1.33 0 1.89-.17 2.29-.71.41-.53.5-.98.43-3.06m4.19-3.23h-1.48c-1.49 0-1.5 0-1.71.28S9.7 9.21 9.7 12v2.96l.27.27c.25.27.31.27 1.71.27h1.44v-1.19l-1.09-.04-1.1-.03V12.6l.68-.03.66-.04v-1.19h-1.39V9.7h2.24V8.5m5.88.06c0-.06-.3-.06-.66-.06l-.68.06-.59 2.35c-.38 1.48-.62 2.27-.67 2.13-.08-.27-1.14-4.44-1.14-4.49 0-.05-.31-.05-.68-.05h-.69l.41 1.55c.2.87.59 2.28.81 3.15.34 1.35.46 1.65.75 1.94.2.22.45.36.61.36.33 0 .76-.34.9-.73C17.5 14.5 19 8.69 19 8.56z"/></svg><svg viewBox="0 0 24 24" id="download-circle-outline" xmlns="http://www.w3.org/2000/svg"><path d="M8 17v-2h8v2H8m8-7l-4 4-4-4h2.5V6h3v4H16m-4-8c5.5 0 10 4.5 10 10s-4.5 10-10 10S2 17.5 2 12 6.5 2 12 2m0 2c-4.42 0-8 3.58-8 8s3.58 8 8 8 8-3.58 8-8-3.58-8-8-8z"/></svg><svg viewBox="0 0 24 24" id="eyedropper" xmlns="http://www.w3.org/2000/svg"><path d="M19.35 11.72l-2.13 2.13-1.41-1.42-7.71 7.71L3.5 22 2 20.5l1.86-4.6 7.71-7.71-1.42-1.41 2.13-2.13 7.07 7.07M16.76 3A3 3 0 0121 3a3 3 0 010 4.24l-1.92 1.92-4.24-4.24L16.76 3M5.56 17.03L4.5 19.5l2.47-1.06L14.4 11 13 9.6l-7.44 7.43z"/></svg><svg viewBox="0 0 24 24" id="filter" xmlns="http://www.w3.org/2000/svg"><path d="M14 12v7.88c.04.3-.06.62-.29.83a.996.996 0 01-1.41 0l-2.01-2.01a.989.989 0 01-.29-.83V12h-.03L4.21 4.62a1 1 0 01.17-1.4c.19-.14.4-.22.62-.22h14c.22 0 .43.08.62.22a1 1 0 01.17 1.4L14.03 12H14z"/></svg><svg viewBox="0 0 24 24" id="filter-outline" xmlns="http://www.w3.org/2000/svg"><path d="M15 19.88c.04.3-.06.62-.29.83a.996.996 0 01-1.41 0L9.29 16.7a.989.989 0 01-.29-.83v-5.12L4.21 4.62a1 1 0 01.17-1.4c.19-.14.4-.22.62-.22h14c.22 0 .43.08.62.22a1 1 0 01.17 1.4L15 10.75v9.13M7.04 5L11 10.06v5.52l2 2v-7.53L16.96 5H7.04z"/></svg><svg viewBox="0 0 24 24" id="format-list-bulleted" xmlns="http://www.w3.org/2000/svg"><path d="M7 5h14v2H7V5m0 8v-2h14v2H7M4 4.5A1.5 1.5 0 015.5 6 1.5 1.5 0 014 7.5 1.5 1.5 0 012.5 6 1.5 1.5 0 014 4.5m0 6A1.5 1.5 0 015.5 12 1.5 1.5 0 014 13.5 1.5 1.5 0 012.5 12 1.5 1.5 0 014 10.5M7 19v-2h14v2H7m-3-2.5A1.5 1.5 0 015.5 18 1.5 1.5 0 014 19.5 1.5 1.5 0 012.5 18 1.5 1.5 0 014 16.5z"/></svg><svg viewBox="0 0 24 24" id="fountain" xmlns="http://www.w3.org/2000/svg"><path d="M7.5 2C4.47 2 2 4.46 2 7.5V8h2v-.5A3.5 3.5 0 017.5 4c1.5 0 2.76.93 3.26 2.24C10.37 6.08 9.95 6 9.5 6c-1.39 0-2.6.82-3.16 2l1.74 1c.21-.58.77-1 1.42-1A1.5 1.5 0 0111 9.5V11h2V9.5A1.5 1.5 0 0114.5 8c.66 0 1.21.42 1.42 1l1.74-1c-.56-1.18-1.76-2-3.16-2-.45 0-.87.08-1.26.24C13.74 4.93 15 4 16.5 4A3.5 3.5 0 0120 7.5V8h2v-.5A5.5 5.5 0 0016.5 2c-1.86 0-3.5.93-4.5 2.34C11 2.93 9.36 2 7.5 2M6 12v2h1.42c.5 1.15 1.43 2.07 2.58 2.57V19H2s.82 1.23 1.41 2.11c.37.56.99.89 1.66.89h13.86c.67 0 1.29-.33 1.66-.89L22 19h-8v-2.43c1.15-.5 2.08-1.42 2.58-2.57H18v-2H6z"/></svg><svg viewBox="0 0 24 24" id="gauge" xmlns="http://www.w3.org/2000/svg"><path d="M12 2A10 10 0 002 12a10 10 0 0010 10 10 10 0 0010-10A10 10 0 0012 2m0 2a8 8 0 018 8c0 2.4-1 4.5-2.7 6-1.4-1.3-3.3-2-5.3-2s-3.8.7-5.3 2C5 16.5 4 14.4 4 12a8 8 0 018-8m2 1.89c-.38.01-.74.26-.9.65l-1.29 3.23-.1.23c-.71.13-1.3.6-1.57 1.26-.41 1.03.09 2.19 1.12 2.6 1.03.41 2.19-.09 2.6-1.12.26-.66.14-1.42-.29-1.98l.1-.26 1.29-3.21.01-.03c.2-.51-.05-1.09-.56-1.3-.13-.05-.26-.07-.41-.07M10 6a1 1 0 00-1 1 1 1 0 001 1 1 1 0 001-1 1 1 0 00-1-1M7 9a1 1 0 00-1 1 1 1 0 001 1 1 1 0 001-1 1 1 0 00-1-1m10 0a1 1 0 00-1 1 1 1 0 001 1 1 1 0 001-1 1 1 0 00-1-1z"/></svg><svg viewBox="0 0 24 24" id="hydraulic-oil-level" xmlns="http://www.w3.org/2000/svg"><path d="M15 18c-1.66 0-3-1.34-3-3 0-2 3-5.37 3-5.37S18 13 18 15c0 1.66-1.34 3-3 3m5-14v16H10V4H8v16c0 1.11.89 2 2 2h10c1.11 0 2-.89 2-2V4h-2M2 19l5-5-5-5v10M16 6V2h-2v4h-3v2h8V6h-3z"/></svg><svg viewBox="0 0 24 24" id="lightbulb" xmlns="http://www.w3.org/2000/svg"><path d="M12 2a7 7 0 00-7 7c0 2.38 1.19 4.47 3 5.74V17a1 1 0 001 1h6a1 1 0 001-1v-2.26c1.81-1.27 3-3.36 3-5.74a7 7 0 00-7-7M9 21a1 1 0 001 1h4a1 1 0 001-1v-1H9v1z"/></svg><svg viewBox="0 0 24 24" id="lightbulb-off" xmlns="http://www.w3.org/2000/svg"><path d="M12 2C9.76 2 7.78 3.05 6.5 4.68l9.81 9.82C17.94 13.21 19 11.24 19 9a7 7 0 00-7-7M3.28 4L2 5.27 5.04 8.3C5 8.53 5 8.76 5 9c0 2.38 1.19 4.47 3 5.74V17a1 1 0 001 1h5.73l4 4L20 20.72 3.28 4M9 20v1a1 1 0 001 1h4a1 1 0 001-1v-1H9z"/></svg><svg viewBox="0 0 24 24" id="menu" xmlns="http://www.w3.org/2000/svg"><path d="M3 6h18v2H3V6m0 5h18v2H3v-2m0 5h18v2H3v-2z"/></svg><svg viewBox="0 0 24 24" id="monitor" xmlns="http://www.w3.org/2000/svg"><path d="M21 16H3V4h18m0-2H3c-1.11 0-2 .89-2 2v12a2 2 0 002 2h7v2H8v2h8v-2h-2v-2h7a2 2 0 002-2V4a2 2 0 00-2-2z"/></svg><svg viewBox="0 0 24 24" id="oil-temperature" xmlns="http://www.w3.org/2000/svg"><path d="M10 5h3V3h-3V2c0-.6-.4-1-1-1s-1 .4-1 1v13.3c-.6.3-1 1-1 1.7 0 1.1.9 2 2 2s2-.9 2-2c0-.7-.4-1.4-1-1.7V13h3v-2h-3V9h3V7h-3V5m12 12.5s2 2.2 2 3.5c0 1.1-.9 2-2 2s-2-.9-2-2c0-1.3 2-3.5 2-3.5m.9-2c-.3.5-.9.6-1.4.4l-2.1-1.2-3.6 6.3c-.3.6-1 1-1.8 1H5c-1.1 0-2-.9-2-2v-3c0-1.1.9-2 2-2v5h9l2.1-3.6-3.1 1.8v-2.4l6.2-3.6 3.3 1.9c.5.3.6.9.4 1.4M3.5 13.9l-1.7 1.7c-.4.4-1 .4-1.4 0s-.4-1 0-1.4l1.7-1.7c.4-.4 1-.4 1.4 0s.4 1 0 1.4z"/></svg><svg viewBox="0 0 24 24" id="pencil" xmlns="http://www.w3.org/2000/svg"><path d="M20.71 7.04c.39-.39.39-1.04 0-1.41l-2.34-2.34c-.37-.39-1.02-.39-1.41 0l-1.84 1.83 3.75 3.75M3 17.25V21h3.75L17.81 9.93l-3.75-3.75L3 17.25z"/></svg><svg viewBox="0 0 24 24" id="pinwheel" xmlns="http://www.w3.org/2000/svg"><path d="M12 12c0-3 2.5-5.5 5.5-5.5S23 9 23 12H12m0 0c0 3-2.5 5.5-5.5 5.5S1 15 1 12h11m0 0c-3 0-5.5-2.5-5.5-5.5S9 1 12 1v11m0 0c3 0 5.5 2.5 5.5 5.5S15 23 12 23V12z"/></svg><svg viewBox="0 0 24 24" id="plus-circle-outline" xmlns="http://www.w3.org/2000/svg"><path d="M12 20c-4.41 0-8-3.59-8-8s3.59-8 8-8 8 3.59 8 8-3.59 8-8 8m0-18A10 10 0 002 12a10 10 0 0010 10 10 10 0 0010-10A10 10 0 0012 2m1 5h-2v4H7v2h4v4h2v-4h4v-2h-4V7z"/></svg><svg viewBox="0 0 24 24" id="shower-head" xmlns="http://www.w3.org/2000/svg"><path d="M20 20a1 1 0 011 1 1 1 0 01-1 1 1 1 0 01-1-1 1 1 0 011-1m-4 0a1 1 0 011 1 1 1 0 01-1 1 1 1 0 01-1-1 1 1 0 011-1m-4 0a1 1 0 011 1 1 1 0 01-1 1 1 1 0 01-1-1 1 1 0 011-1m-4 0a1 1 0 011 1 1 1 0 01-1 1 1 1 0 01-1-1 1 1 0 011-1m-4 0a1 1 0 011 1 1 1 0 01-1 1 1 1 0 01-1-1 1 1 0 011-1m2-3a1 1 0 011 1 1 1 0 01-1 1 1 1 0 01-1-1 1 1 0 011-1m4 0a1 1 0 011 1 1 1 0 01-1 1 1 1 0 01-1-1 1 1 0 011-1m4 0a1 1 0 011 1 1 1 0 01-1 1 1 1 0 01-1-1 1 1 0 011-1m4 0a1 1 0 011 1 1 1 0 01-1 1 1 1 0 01-1-1 1 1 0 011-1M8 14a1 1 0 011 1 1 1 0 01-1 1 1 1 0 01-1-1 1 1 0 011-1m4 0a1 1 0 011 1 1 1 0 01-1 1 1 1 0 01-1-1 1 1 0 011-1m4 0a1 1 0 011 1 1 1 0 01-1 1 1 1 0 01-1-1 1 1 0 011-1m3-2H5v-2h14v2m-1.08-3H6.08C6.5 6.5 8.5 4.5 11 4.08V2h2v2.08c2.5.42 4.5 2.42 4.92 4.92z"/></svg><svg viewBox="0 0 24 24" id="sync" xmlns="http://www.w3.org/2000/svg"><path d="M12 18a6 6 0 01-6-6c0-1 .25-1.97.7-2.8L5.24 7.74A7.93 7.93 0 004 12a8 8 0 008 8v3l4-4-4-4m0-11V1L8 5l4 4V6a6 6 0 016 6c0 1-.25 1.97-.7 2.8l1.46 1.46A7.93 7.93 0 0020 12a8 8 0 00-8-8z"/></svg><svg viewBox="0 0 24 24" id="thermometer" xmlns="http://www.w3.org/2000/svg"><path d="M15 13V5a3 3 0 00-6 0v8a5 5 0 106 0m-3-9a1 1 0 011 1v3h-2V5a1 1 0 011-1z"/></svg><svg viewBox="0 0 24 24" id="thermometer-alert" xmlns="http://www.w3.org/2000/svg"><path d="M17 13V7h2v6h-2m0 4v-2h2v2h-2m-4-4V5c0-1.7-1.3-3-3-3S7 3.3 7 5v8c-2.2 1.7-2.7 4.8-1 7s4.8 2.7 7 1 2.7-4.8 1-7c-.3-.4-.6-.7-1-1m-3-9c.6 0 1 .4 1 1v3H9V5c0-.6.4-1 1-1z"/></svg><svg viewBox="0 0 24 24" id="thermometer-chevron-down" xmlns="http://www.w3.org/2000/svg"><path d="M17.41 12.17L14.24 9l-1.41 1.41L17.41 15 22 10.41 20.58 9M10 13V5c0-1.66-1.34-3-3-3S4 3.34 4 5v8c-2.21 1.66-2.66 4.79-1 7s4.79 2.66 7 1 2.66-4.79 1-7a4.74 4.74 0 00-1-1M7 4c.55 0 1 .45 1 1v3H6V5c0-.55.45-1 1-1z"/></svg><svg viewBox="0 0 24 24" id="thermometer-chevron-up" xmlns="http://www.w3.org/2000/svg"><path d="M17.41 11.83L20.58 15 22 13.59 17.41 9l-4.59 4.59L14.24 15l3.17-3.17M10 13V5c0-1.66-1.34-3-3-3S4 3.34 4 5v8c-2.21 1.66-2.66 4.79-1 7s4.79 2.66 7 1 2.66-4.79 1-7a4.74 4.74 0 00-1-1M7 4c.55 0 1 .45 1 1v3H6V5c0-.55.45-1 1-1z"/></svg><svg viewBox="0 0 24 24" id="timer" xmlns="http://www.w3.org/2000/svg"><path d="M19.03 7.39l1.42-1.42c-.45-.51-.9-.97-1.41-1.41L17.62 6c-1.55-1.26-3.5-2-5.62-2a9 9 0 000 18c5 0 9-4.03 9-9 0-2.12-.74-4.07-1.97-5.61M13 14h-2V7h2v7m2-13H9v2h6V1z"/></svg><svg viewBox="0 0 24 24" id="timer-off" xmlns="http://www.w3.org/2000/svg"><path d="M3 4L1.75 5.27 4.5 8.03A8.905 8.905 0 003 13a9 9 0 009 9c1.84 0 3.55-.55 5-1.5l2.5 2.5 1.25-1.27L13.04 14 3 4m12-3H9v2h6m6 10c0 1.83-.55 3.53-1.5 4.94L13 11.45V7h-2v2.45L7.05 5.5C8.47 4.55 10.17 4 12 4c2.12 0 4.07.74 5.62 1.97l1.42-1.42 1.41 1.42-1.42 1.42A8.963 8.963 0 0121 13z"/></svg><svg viewBox="0 0 24 24" id="view-dashboard" xmlns="http://www.w3.org/2000/svg"><path d="M13 3v6h8V3m-8 18h8V11h-8M3 21h8v-6H3m0-2h8V3H3v10z"/></svg><svg viewBox="0 0 24 24" id="watch" xmlns="http://www.w3.org/2000/svg"><path d="M6 12a6 6 0 016-6 6 6 0 016 6 6 6 0 01-6 6 6 6 0 01-6-6m14 0a7.94 7.94 0 00-3.05-6.27L16 0H8l-.95 5.73A7.94 7.94 0 004 12c0 2.54 1.19 4.81 3.05 6.27L8 24h8l.95-5.73A7.955 7.955 0 0020 12z"/></svg><svg viewBox="0 0 24 24" id="water-pump" xmlns="http://www.w3.org/2000/svg"><path d="M19 14.5s2 2.17 2 3.5a2 2 0 01-2 2 2 2 0 01-2-2c0-1.33 2-3.5 2-3.5M5 18V9a2 2 0 01-2-2 2 2 0 012-2V4a2 2 0 012-2h2a2 2 0 012 2v1h8a2 2 0 012 2v4a1 1 0 011 1 1 1 0 01-1 1h-4a1 1 0 01-1-1 1 1 0 011-1V9h-6v9h1a2 2 0 012 2v2H2v-2a2 2 0 012-2h1z"/></svg><svg viewBox="0 0 24 24" id="weather-night" xmlns="http://www.w3.org/2000/svg"><path d="M17.75 4.09l-2.53 1.94.91 3.06-2.63-1.81-2.63 1.81.91-3.06-2.53-1.94L12.44 4l1.06-3 1.06 3 3.19.09m3.5 6.91l-1.64 1.25.59 1.98-1.7-1.17-1.7 1.17.59-1.98L15.75 11l2.06-.05L18.5 9l.69 1.95 2.06.05m-2.28 4.95c.83-.08 1.72 1.1 1.19 1.85-.32.45-.66.87-1.08 1.27C15.17 23 8.84 23 4.94 19.07c-3.91-3.9-3.91-10.24 0-14.14.4-.4.82-.76 1.27-1.08.75-.53 1.93.36 1.85 1.19-.27 2.86.69 5.83 2.89 8.02a9.96 9.96 0 008.02 2.89m-1.64 2.02a12.08 12.08 0 01-7.8-3.47c-2.17-2.19-3.33-5-3.49-7.82-2.81 3.14-2.7 7.96.31 10.98 3.02 3.01 7.84 3.12 10.98.31z"/></svg><svg viewBox="0 0 24 24" id="weather-sunny" xmlns="http://www.w3.org/2000/svg"><path d="M12 7a5 5 0 015 5 5 5 0 01-5 5 5 5 0 01-5-5 5 5 0 015-5m0 2a3 3 0 00-3 3 3 3 0 003 3 3 3 0 003-3 3 3 0 00-3-3m0-7l2.39 3.42C13.65 5.15 12.84 5 12 5c-.84 0-1.65.15-2.39.42L12 2M3.34 7l4.16-.35A7.2 7.2 0 005.94 8.5c-.44.74-.69 1.5-.83 2.29L3.34 7m.02 10l1.76-3.77a7.131 7.131 0 002.38 4.14L3.36 17M20.65 7l-1.77 3.79a7.023 7.023 0 00-2.38-4.15l4.15.36m-.01 10l-4.14.36c.59-.51 1.12-1.14 1.54-1.86.42-.73.69-1.5.83-2.29L20.64 17M12 22l-2.41-3.44c.74.27 1.55.44 2.41.44.82 0 1.63-.17 2.37-.44L12 22z"/></svg><svg viewBox="0 0 24 24" id="webcam" xmlns="http://www.w3.org/2000/svg"><path d="M12 2a7 7 0 017 7 7 7 0 01-7 7 7 7 0 01-7-7 7 7 0 017-7m0 2a5 5 0 00-5 5 5 5 0 005 5 5 5 0 005-5 5 5 0 00-5-5m0 2a3 3 0 013 3 3 3 0 01-3 3 3 3 0 01-3-3 3 3 0 013-3M6 22a2 2 0 01-2-2c0-.38.1-.73.29-1.03l1.82-3.16A9.007 9.007 0 0012 18c2.25 0 4.31-.83 5.89-2.19l1.82 3.16c.19.3.29.65.29 1.03a2 2 0 01-2 2H6z"/></svg><svg viewBox="0 0 24 24" id="white-balance-incandescent" xmlns="http://www.w3.org/2000/svg"><path d="M17.24 18.15l1.8 1.8 1.41-1.42-1.79-1.79M20 12.5h3v-2h-3m-5-4.19V1.5H9v4.81C7.21 7.35 6 9.28 6 11.5a6 6 0 006 6 6 6 0 006-6c0-2.22-1.21-4.15-3-5.19M4 10.5H1v2h3m7 9.95h2V19.5h-2m-7.45-.97l1.41 1.42 1.8-1.8-1.42-1.41-1.79 1.79z"/></svg><svg viewBox="0 0 24 24" id="wind-turbine" xmlns="http://www.w3.org/2000/svg"><path d="M13.33 11.67l2.88 2.91c1.41-1.42 0-2.83 0-2.83l-1.49-1.51c.18-.38.28-.8.28-1.24 0-1.05-.54-1.97-1.36-2.5L15 2.11c-1.91-.58-2.5 1.33-2.5 1.33l-.81 2.59c-1.23.13-2.23.97-2.56 2.15L4.67 9.63c.64 1.9 2.53 1.27 2.53 1.27l2.07-.67c.34.74.96 1.31 1.73 1.59V19s-2 0-2 2v1h6v-1s0-2-2-2v-7.18c.12-.04.23-.1.33-.15M10.5 9A1.5 1.5 0 0112 7.5 1.5 1.5 0 0113.5 9a1.5 1.5 0 01-1.5 1.5A1.5 1.5 0 0110.5 9z"/></svg></defs></svg>